<svg xmlns="http://www.w3.org/2000/svg" width="800" height="800" class="icon" viewBox="0 0 1024 1024"><path fill="#6D4C41" d="M277.333 789.333A21.333 21.333 0 0 0 256 768h-64a21.333 21.333 0 0 0-21.333 21.333V896A21.333 21.333 0 0 0 192 917.333h64A21.333 21.333 0 0 0 277.333 896V789.333zm576 0A21.333 21.333 0 0 0 832 768h-64a21.333 21.333 0 0 0-21.333 21.333V896A21.333 21.333 0 0 0 768 917.333h64A21.333 21.333 0 0 0 853.333 896V789.333z"/><path fill="#E3F2FD" d="M768 640H256s71.659-192 85.333-213.333 35.67-21.334 42.667-21.334h256c4.565 0 29.995-.661 42.667 21.334C693.419 445.355 768 640 768 640z"/><path fill="#FF3D00" d="M810.667 618.667 512 597.333l-298.667 21.334a42.667 42.667 0 0 0-42.666 42.666V832A21.333 21.333 0 0 0 192 853.333h640A21.333 21.333 0 0 0 853.333 832V661.333a42.667 42.667 0 0 0-42.666-42.666z"/><path fill="#FF3D00" d="M640 426.667c7.232 0 44.437 2.837 67.115 58.709 4.544 11.157 42.581 106.432 42.581 106.453l10.73 26.838H263.596l10.709-26.902c12.843-32.277 38.23-95.978 42.39-106.026 22.869-54.827 57.3-59.072 67.306-59.072h256m.064-42.667H384c-6.997 0-71.104 0-106.667 85.333C271.915 482.347 234.667 576 234.667 576h-85.334A21.333 21.333 0 0 0 128 597.333V640a21.333 21.333 0 0 0 21.333 21.333h725.334A21.333 21.333 0 0 0 896 640v-42.667A21.333 21.333 0 0 0 874.667 576h-85.334s-38.122-95.488-42.666-106.667C712 384 646.443 384 640 384h-.128.192z"/><path fill="#37474F" d="M810.667 746.667A21.333 21.333 0 0 1 789.333 768H234.667a21.333 21.333 0 0 1-21.334-21.333v-64a21.333 21.333 0 0 1 21.334-21.334h554.666a21.333 21.333 0 0 1 21.334 21.334v64z"/><path fill="#FFF176" d="M234.667 714.667a32 32 0 1 0 64 0 32 32 0 1 0-64 0ZM725.333 714.667a32 32 0 1 0 64 0 32 32 0 1 0-64 0Z"/><path fill="#FFA000" d="M704 234.667H426.667v-85.334h106.666V192L576 149.333h42.667V192l42.666-42.667H704l42.667 21.291v42.71z"/><path fill="#FFA000" d="M384 85.333c-58.923 0-106.667 47.744-106.667 106.667S325.077 298.667 384 298.667 490.667 250.923 490.667 192 442.923 85.333 384 85.333zm-42.667 128a21.333 21.333 0 1 1 0-42.666 21.333 21.333 0 1 1 0 42.666z"/><path fill="#D67C05" d="M533.333 234.667v-85.334h-51.669a105.792 105.792 0 0 1 0 85.334h51.67z"/></svg>