<svg version="1.2" xmlns="http://www.w3.org/2000/svg" viewBox="0 0 838 144" width="838" height="144"><style>.a{fill:#003b96}</style><path class="a" d="m40.5 111.5q-12.8 0-22.5-5.1-9.6-5-16.6-15l11-12.6q7.2 10.3 13.9 14.3 6.6 4 15.8 4 5.6 0 10.2-1.8 4.6-1.7 7.3-4.8 2.6-3.1 2.6-7.1 0-2.7-0.9-5.1-0.8-2.3-2.8-4.3-1.7-1.9-4.7-3.5-2.8-1.6-6.7-2.8-3.8-1.4-8.8-2.2-8-1.7-14-4.3-5.9-2.7-9.9-6.7-4-4-5.9-9-1.9-5.2-1.9-11.6 0-8.4 4.7-14.9 4.8-6.5 12.7-10.2 8.2-3.9 18.2-3.9 12 0 20.9 4.8 9 4.5 14.2 13.4l-11.2 11.1q-4.5-7.2-10.7-11.1-6-3.8-13.6-3.8-5.8 0-10.1 1.8-4.3 1.7-6.8 5-2.3 3.1-2.3 7.4 0 3.1 1.1 5.8 1.2 2.5 3.6 4.5 2.5 2 6.7 3.6 4.1 1.5 9.9 2.7 8.1 1.7 14.5 4.5 6.3 2.7 10.8 6.4 4.4 3.7 6.6 8.3 2.4 4.6 2.4 9.9 0 9.9-4.6 17.2-4.6 7.2-13 11.2-8.4 3.9-20.1 3.9zm71.9 31.1h-15.4v-110.3h15.4v17.8l-2.4-1.4q0.9-4.4 5.1-8.4 4.1-4.2 10-6.7 6.1-2.6 12.5-2.6 10.5 0 18.6 5.1 8.1 5.2 12.9 14.3 4.7 9 4.7 20.7 0 11.5-4.7 20.7-4.6 9-12.7 14.4-8.2 5.1-18.4 5.1-6.8 0-13.2-2.6-6.3-2.8-10.8-7.1-4.4-4.3-5.4-8.9l3.8-2.1zm23.1-45.3q6.8 0 12.1-3.4 5.4-3.4 8.5-9.3 3.1-5.9 3.1-13.5 0-7.5-3.1-13.3-3-5.9-8.3-9.3-5.4-3.4-12.3-3.4-7 0-12.3 3.4-5.3 3.2-8.4 9.2-3.1 5.9-3.1 13.4 0 7.6 3.1 13.5 3.1 5.9 8.4 9.3 5.3 3.4 12.3 3.4zm91.2 14.2q-12 0-21.4-5-9.1-5.2-14.5-14.1-5.1-8.8-5.1-20.4 0-9.2 2.9-16.7 3-7.6 8.2-13 5.3-5.7 12.5-8.6 7.4-3.1 16-3.1 7.6 0 14.1 2.9 6.5 2.8 11.2 7.9 4.9 5 7.4 12 2.7 6.8 2.5 14.9l-0.1 6.5h-63.5l-3.4-12.1h53.7l-2.2 2.5v-3.5q-0.4-4.9-3.2-8.8-2.9-3.8-7.2-6-4.2-2.3-9.3-2.3-8 0-13.4 3.1-5.5 3-8.3 8.9-2.8 5.8-2.8 14.4 0 8.1 3.4 14.2 3.4 5.9 9.6 9.2 6.2 3.2 14.3 3.2 5.8 0 10.7-1.9 5-1.9 10.8-7l7.7 10.8q-3.6 3.6-8.7 6.3-5.1 2.6-10.8 4.3-5.7 1.4-11.1 1.4zm86.7 0q-12 0-21.3-5-9.2-5.2-14.5-14.1-5.2-8.8-5.2-20.4 0-9.2 2.9-16.7 3-7.6 8.2-13 5.3-5.7 12.6-8.6 7.4-3.1 16-3.1 7.5 0 14 2.9 6.5 2.8 11.3 7.9 4.8 5 7.4 12 2.6 6.8 2.5 14.9l-0.2 6.5h-63.5l-3.4-12.1h53.8l-2.3 2.5v-3.5q-0.4-4.9-3.2-8.8-2.8-3.8-7.1-6-4.3-2.3-9.3-2.3-8 0-13.5 3.1-5.5 3-8.3 8.9-2.8 5.8-2.8 14.4 0 8.1 3.4 14.2 3.4 5.9 9.6 9.2 6.2 3.2 14.4 3.2 5.7 0 10.6-1.9 5.1-1.9 10.8-7l7.7 10.8q-3.5 3.6-8.7 6.3-5 2.6-10.8 4.3-5.6 1.4-11.1 1.4zm82.9 0q-10.7 0-19.1-5.1-8.3-5.4-13.2-14.4-4.9-9.2-4.9-20.9 0-11.7 4.8-20.7 4.8-9.2 13.1-14.3 8.3-5.4 18.8-5.4 5.8 0 11.1 1.9 5.5 1.8 9.8 5.1 4.3 3.1 6.6 6.9 2.6 3.7 2.6 7.6l-4.5 0.3v-52h15.3v109.6h-15.3v-18.5h3q0 3.5-2.4 7.1-2.4 3.4-6.3 6.3-3.9 3-9.1 4.8-5 1.7-10.3 1.7zm2-13.1q7 0 12.3-3.6 5.3-3.5 8.3-9.6 3.1-6.2 3.1-14.1 0-7.8-3.1-13.9-3-6.2-8.3-9.8-5.3-3.5-12.3-3.5-6.9 0-12.2 3.5-5.4 3.6-8.5 9.8-2.9 6.1-2.9 13.9 0 7.9 2.9 14.1 3.1 6.1 8.5 9.6 5.3 3.6 12.2 3.6zm88.8 45.7h-16.4l15.7-36.3 0.1 12.2-38.7-87.6h17.7l24.3 57.1q0.7 1.5 1.8 4.6 1 2.9 1.8 5.9l-3.9 0.9q1.2-3.1 2.2-6.2 1.2-3.1 2.2-6.3l20.3-56h18.1l-32 77.7zm102.4-32.6q-10.8 0-19.8-3.9-9-3.8-15.7-10.9-6.7-7.3-10.4-17-3.5-9.8-3.5-21.5 0-11.1 3.8-20.6 4-9.6 11-16.8 6.9-7.3 16.1-11.3 9.2-4 19.9-4 7.5 0 14.6 2.4 7.3 2.2 13 6.4 6 4 9.7 9.1l-10.7 11.1q-6.4-6.5-13-9.7-6.7-3.3-13.6-3.3-7.3 0-13.7 2.8-6.2 2.7-10.9 7.6-4.6 4.9-7.3 11.7-2.6 6.6-2.6 14.6 0 8.4 2.5 15.4 2.7 6.8 7.4 11.7 4.7 4.9 11.2 7.5 6.7 2.6 14.7 2.6 4.9 0 9.6-1.4 4.7-1.3 8.9-3.8 4.1-2.5 7.5-5.9l8 13q-3.4 4-9.3 7.2-5.8 3.3-13 5.2-7.1 1.8-14.4 1.8zm114.4-1.5h-13.7v-50.6q0-6.5-4.8-10.5-4.6-4.2-11.7-4.2-6.5 0-11.8 2.7-5.2 2.7-9.5 8.1l-9.9-9.9q7-7.5 15-11.2 8.1-3.7 17.4-3.7 8.9 0 15.4 2.9 6.5 3 10.1 8.8 3.5 5.6 3.5 13.7zm-37 1.5q-7.5 0-13.4-2.9-6-3-9.5-8.2-3.4-5.3-3.4-12.4 0-6.2 2.2-11 2.2-4.7 6.5-7.8 4.5-3.1 11-4.7 6.6-1.7 15.2-1.7h21.6l-1.3 12.2h-22.2q-4.5 0-8 0.9-3.4 0.7-5.9 2.5-2.4 1.6-3.6 4-1.2 2.2-1.2 5.3 0 3.2 1.7 5.8 1.6 2.3 4.4 3.7 2.8 1.3 6.5 1.3 5.3 0 10.1-1.8 4.9-1.9 8.6-5.2 3.8-3.2 5.9-7.2l3.5 9.9q-3.1 5.2-7.7 9-4.5 3.9-9.9 6.1-5.3 2.2-11.1 2.2zm71.7-1.5h-15.4v-77.7h15.4v24.5l-1.5-6q1.6-5.6 5.5-10.2 4-4.6 9-7.2 5.2-2.7 10.6-2.7 2.6 0 4.8 0.5 2.3 0.4 3.7 1l-4 16.6q-1.8-0.8-4-1.2-2.1-0.6-4.2-0.6-4 0-7.7 1.6-3.5 1.5-6.3 4.3-2.7 2.7-4.3 6.4-1.6 3.5-1.6 7.8zm70.1 1.5q-9.8 0-17.6-3.4-7.8-3.4-13-10.1l10.3-8.8q4.5 5.1 9.7 7.5 5.3 2.2 11.9 2.2 2.7 0 4.9-0.6 2.4-0.7 4-2 1.8-1.4 2.7-3.2 0.9-1.9 0.9-4.1 0-3.8-2.8-6.2-1.5-1-4.8-2.2-3.1-1.4-8.1-2.7-8.6-2.2-14.1-5-5.4-2.8-8.4-6.4-2.2-2.8-3.3-6.1-1-3.4-1-7.4 0-6.5 3.7-11.5 3.7-5 9.9-7.8 6.4-3 14.2-3 5.5 0 10.8 1.5 5.5 1.5 10.1 4.3 4.6 2.8 7.7 6.6l-8.7 9.6q-2.9-2.8-6.3-4.8-3.2-2.3-6.6-3.4-3.4-1.2-6.2-1.2-3.1 0-5.7 0.6-2.5 0.6-4.3 1.7-1.6 1.2-2.5 3-0.9 1.8-0.9 4 0.2 1.9 0.9 3.7 0.9 1.6 2.4 2.8 1.6 1.2 4.9 2.5 3.2 1.4 8.3 2.5 7.4 2 12.1 4.3 4.9 2.3 7.7 5.2 3 2.8 4.1 6.5 1.2 3.7 1.2 8.3 0 6.7-3.8 12-3.7 5.2-10.1 8.1-6.3 3-14.2 3z"/></svg>